<svg id="visual" viewBox="0 0 960 540"  preserveAspectRatio="xMidYMid meet" xmlns="http://www.w3.org/2000/svg" xmlns:xlink="http://www.w3.org/1999/xlink" version="1.1">
<rect x="0" y="0" width="960" height="540" fill="transparent"></rect>
<defs>
<linearGradient id="grad1_0" x1="43.8%" y1="0%" x2="100%" y2="100%">
<stop offset="14.444%" stop-color="#a8f5b2" stop-opacity="1"></stop>
<stop offset="85.556%" stop-color="#3be860" stop-opacity="1"></stop>
</linearGradient></defs><defs><linearGradient id="grad1_1" x1="43.8%" y1="0%" x2="100%" y2="100%">
<stop offset="14.444%" stop-color="#c2f7cc" stop-opacity="1"></stop>
<stop offset="85.556%" stop-color="#6ded7c" stop-opacity="1"></stop>
</linearGradient></defs><defs><linearGradient id="grad1_2" x1="43.8%" y1="0%" x2="100%" y2="100%">
<stop offset="14.444%" stop-color="#9beead" stop-opacity="1"></stop>
<stop offset="85.556%" stop-color="#22c55e" stop-opacity="1"></stop>
</linearGradient></defs><defs><linearGradient id="grad1_3" x1="43.8%" y1="0%" x2="100%" y2="100%">
<stop offset="14.444%" stop-color="#86e89e" stop-opacity="1"></stop>
<stop offset="85.556%" stop-color="#16a34a" stop-opacity="1"></stop>
</linearGradient></defs><defs><linearGradient id="grad1_4" x1="43.8%" y1="0%" x2="100%" y2="100%">
<stop offset="14.444%" stop-color="#65d680" stop-opacity="1"></stop>
<stop offset="85.556%" stop-color="#065f46" stop-opacity="1"></stop>
</linearGradient></defs><defs><linearGradient id="grad1_5" x1="43.8%" y1="0%" x2="100%" y2="100%">
<stop offset="14.444%" stop-color="#4ac663" stop-opacity="1"></stop>
<stop offset="85.556%" stop-color="#064e3b" stop-opacity="1"></stop>
</linearGradient></defs><defs><linearGradient id="grad1_6" x1="43.8%" y1="0%" x2="100%" y2="100%">
<stop offset="14.444%" stop-color="#2d9a43" stop-opacity="1"></stop>
<stop offset="85.556%" stop-color="#022c22" stop-opacity="1"></stop>
</linearGradient></defs><defs><linearGradient id="grad2_0" x1="0%" y1="0%" x2="56.3%" y2="100%">
<stop offset="14.444%" stop-color="#d4fbd7" stop-opacity="1"></stop>
<stop offset="85.556%" stop-color="#3be860" stop-opacity="1"></stop>
</linearGradient></defs><defs><linearGradient id="grad2_1" x1="0%" y1="0%" x2="56.3%" y2="100%">
<stop offset="14.444%" stop-color="#e8f9e9" stop-opacity="1"></stop>
<stop offset="85.556%" stop-color="#6ded7c" stop-opacity="1"></stop>
</linearGradient></defs><defs><linearGradient id="grad2_2" x1="0%" y1="0%" x2="56.3%" y2="100%">
<stop offset="14.444%" stop-color="#d1f6d4" stop-opacity="1"></stop>
<stop offset="85.556%" stop-color="#22c55e" stop-opacity="1"></stop>
</linearGradient></defs><defs><linearGradient id="grad2_3" x1="0%" y1="0%" x2="56.3%" y2="100%">
<stop offset="14.444%" stop-color="#bbf2c3" stop-opacity="1"></stop>
<stop offset="85.556%" stop-color="#16a34a" stop-opacity="1"></stop>
</linearGradient></defs><defs><linearGradient id="grad2_4" x1="0%" y1="0%" x2="56.3%" y2="100%">
<stop offset="14.444%" stop-color="#a5eea9" stop-opacity="1"></stop>
<stop offset="85.556%" stop-color="#065f46" stop-opacity="1"></stop>
</linearGradient></defs><defs><linearGradient id="grad2_5" x1="0%" y1="0%" x2="56.3%" y2="100%">
<stop offset="14.444%" stop-color="#8be88f" stop-opacity="1"></stop>
<stop offset="85.556%" stop-color="#064e3b" stop-opacity="1"></stop>
</linearGradient></defs><defs><linearGradient id="grad2_6" x1="0%" y1="0%" x2="56.3%" y2="100%">
<stop offset="14.444%" stop-color="#6fde78" stop-opacity="1"></stop>
<stop offset="85.556%" stop-color="#022c22" stop-opacity="1"></stop>
</linearGradient></defs><g transform="translate(960, 0)"><path d="M0 378C-25.2 367 -50.3 355.9 -81 354.9C-111.6 353.8 -147.8 362.8 -164 340.6C-180.3 318.3 -176.6 264.8 -191.4 240C-206.2 215.3 -239.4 219.2 -261.1 208.2C-282.8 197.3 -293 171.3 -308.1 148.4C-323.3 125.4 -343.4 105.5 -355.8 81.2C-368.3 57 -373.2 28.5 -378 0L0 0Z" fill="#022c22"></path><path d="M0 324C-21.6 314.5 -43.2 305.1 -69.4 304.2C-95.7 303.3 -126.7 311 -140.6 291.9C-154.5 272.8 -151.4 227 -164.1 205.7C-176.7 184.5 -205.2 187.9 -223.8 178.5C-242.4 169.1 -251.1 146.9 -264.1 127.2C-277.1 107.5 -294.3 90.4 -305 69.6C-315.7 48.8 -319.9 24.4 -324 0L0 0Z" fill="#064e3b"></path><path d="M0 270C-18 262.1 -36 254.2 -57.9 253.5C-79.7 252.7 -105.5 259.2 -117.1 243.3C-128.8 227.4 -126.2 189.1 -136.7 171.4C-147.3 153.8 -171 156.6 -186.5 148.7C-202 140.9 -209.3 122.4 -220.1 106C-230.9 89.6 -245.3 75.3 -254.2 58C-263.1 40.7 -266.5 20.4 -270 0L0 0Z" fill="#065f46"></path><path d="M0 216C-14.4 209.7 -28.8 203.4 -46.3 202.8C-63.8 202.2 -84.4 207.3 -93.7 194.6C-103 181.9 -100.9 151.3 -109.4 137.2C-117.8 123 -136.8 125.3 -149.2 119C-161.6 112.7 -167.4 97.9 -176.1 84.8C-184.7 71.7 -196.2 60.3 -203.3 46.4C-210.5 32.6 -213.2 16.3 -216 0L0 0Z" fill="#16a34a" opacity="0.95"></path><path d="M0 162C-10.8 157.3 -21.6 152.5 -34.7 152.1C-47.8 151.6 -63.3 155.5 -70.3 146C-77.3 136.4 -75.7 113.5 -82 102.9C-88.4 92.3 -102.6 94 -111.9 89.2C-121.2 84.5 -125.6 73.4 -132.1 63.6C-138.5 53.8 -147.2 45.2 -152.5 34.8C-157.9 24.4 -159.9 12.2 -162 0L0 0Z" fill="#22c55e"></path><path d="M0 108C-7.2 104.8 -14.4 101.7 -23.1 101.4C-31.9 101.1 -42.2 103.7 -46.9 97.3C-51.5 90.9 -50.5 75.7 -54.7 68.6C-58.9 61.5 -68.4 62.6 -74.6 59.5C-80.8 56.4 -83.7 49 -88 42.4C-92.4 35.8 -98.1 30.1 -101.7 23.2C-105.2 16.3 -106.6 8.1 -108 0L0 0Z" fill="#3be860"></path><path d="M0 54C-3.6 52.4 -7.2 50.8 -11.6 50.7C-15.9 50.5 -21.1 51.8 -23.4 48.7C-25.8 45.5 -25.2 37.8 -27.3 34.3C-29.5 30.8 -34.2 31.3 -37.3 29.7C-40.4 28.2 -41.9 24.5 -44 21.2C-46.2 17.9 -49.1 15.1 -50.8 11.6C-52.6 8.1 -53.3 4.1 -54 0L0 0Z" fill="#58eb6e"></path></g><g transform="translate(0, 540)"><path d="M0 -378C22.6 -353.1 45.2 -328.2 74.3 -325.6C103.5 -323.1 139.2 -343 158.8 -329.8C178.4 -316.5 181.9 -270.3 195.2 -244.7C208.4 -219.2 231.5 -214.4 255.7 -203.9C279.8 -193.4 305.1 -177.2 325.2 -156.6C345.4 -136 360.6 -111 368.5 -84.1C376.5 -57.3 377.2 -28.6 378 0L0 0Z" fill="#022c22"></path><path d="M0 -324C19.4 -302.6 38.7 -281.3 63.7 -279.1C88.7 -276.9 119.3 -294 136.1 -282.6C152.9 -271.3 155.9 -231.7 167.3 -209.8C178.7 -187.9 198.4 -183.7 219.1 -174.8C239.8 -165.8 261.5 -151.9 278.8 -134.3C296.1 -116.6 309.1 -95.1 315.9 -72.1C322.7 -49.1 323.3 -24.5 324 0L0 0Z" fill="#064e3b"></path><path d="M0 -270C16.1 -252.2 32.3 -234.4 53.1 -232.6C73.9 -230.8 99.4 -245 113.4 -235.5C127.4 -226.1 129.9 -193 139.4 -174.8C148.9 -156.5 165.4 -153.1 182.6 -145.6C199.9 -138.1 217.9 -126.6 232.3 -111.9C246.7 -97.2 257.6 -79.3 263.2 -60.1C268.9 -40.9 269.5 -20.5 270 0L0 0Z" fill="#065f46"></path><path d="M0 -216C12.9 -201.8 25.8 -187.5 42.5 -186.1C59.1 -184.6 79.5 -196 90.7 -188.4C101.9 -180.9 103.9 -154.4 111.5 -139.8C119.1 -125.2 132.3 -122.5 146.1 -116.5C159.9 -110.5 174.3 -101.3 185.9 -89.5C197.4 -77.7 206 -63.4 210.6 -48.1C215.1 -32.7 215.6 -16.4 216 0L0 0Z" fill="#16a34a"></path><path d="M0 -162C9.7 -151.3 19.4 -140.6 31.9 -139.6C44.3 -138.5 59.7 -147 68.1 -141.3C76.5 -135.7 77.9 -115.8 83.6 -104.9C89.3 -93.9 99.2 -91.9 109.6 -87.4C119.9 -82.9 130.7 -76 139.4 -67.1C148 -58.3 154.5 -47.6 157.9 -36C161.3 -24.5 161.7 -12.3 162 0L0 0Z" fill="#22c55e"></path><path d="M0 -108C6.5 -100.9 12.9 -93.8 21.2 -93C29.6 -92.3 39.8 -98 45.4 -94.2C51 -90.4 52 -77.2 55.8 -69.9C59.6 -62.6 66.1 -61.2 73 -58.3C79.9 -55.3 87.2 -50.6 92.9 -44.8C98.7 -38.9 103 -31.7 105.3 -24C107.6 -16.4 107.8 -8.2 108 0L0 0Z" fill="#3be860"></path><path d="M0 -54C3.2 -50.4 6.5 -46.9 10.6 -46.5C14.8 -46.2 19.9 -49 22.7 -47.1C25.5 -45.2 26 -38.6 27.9 -35C29.8 -31.3 33.1 -30.6 36.5 -29.1C40 -27.6 43.6 -25.3 46.5 -22.4C49.3 -19.4 51.5 -15.9 52.6 -12C53.8 -8.2 53.9 -4.1 54 0L0 0Z" fill="#58eb6e"></path></g></svg>
